<svg xmlns="http://www.w3.org/2000/svg" width="149" height="24" fill="currentColor" xmlns:v="https://vecta.io/nano"><path opacity=".8" d="M3.039 16.309v6.986c0 .43.364.609.477.649a.78.78 0 0 0 .833-.162l5.285-5.079c.45-.432.884-.887 1.211-1.419l.217-.391c.324-.657.324-1.29.008-1.923-.469-.941-1.666-1.899-3.47-2.807l-3.081 1.72c-.914.519-1.48 1.436-1.48 2.426z" fill-opacity=".95" fill="currentColor"/><path d="M0 .771v7.326c0 .917.615 1.728 1.488 1.988 2.976.86 8.16 2.71 9.414 5.428.162.357.259.706.291 1.071.833-1.517 1.213-3.262 1.035-5.03a8.64 8.64 0 0 0-3.64-6.239L1.205.147C1.076.049.922 0 .768 0A.73.73 0 0 0 .404.09C.162.228 0 .479 0 .771z" fill-opacity=".95" fill="currentColor"/><path opacity=".8" d="M22.694 16.309v6.986c0 .43-.364.609-.477.649a.78.78 0 0 1-.833-.162l-5.408-5.197c-.368-.354-.72-.728-.997-1.157-.22-.339-.308-.535-.308-.535-.324-.657-.324-1.29-.008-1.923.469-.941 1.666-1.899 3.47-2.807l3.082 1.72c.922.519 1.48 1.436 1.48 2.426z" fill-opacity=".95" fill="currentColor"/><path d="M25.738.771v7.326c0 .917-.615 1.728-1.488 1.988-2.976.86-8.16 2.71-9.414 5.428a3.25 3.25 0 0 0-.291 1.071c-.833-1.517-1.213-3.262-1.035-5.03.242-2.507 1.569-4.787 3.64-6.239L24.533.146c.129-.097.283-.146.437-.146a.73.73 0 0 1 .364.089c.243.138.405.389.405.682z" fill-opacity=".95" fill="currentColor"/><path d="M35.387 3.266h2.356l5.459 12.628h.162l5.459-12.628h2.315v14.559H49.42V6.238h-.162l-5.004 11.586h-1.982L37.267 6.238h-.162v11.586h-1.719V3.266zm17.65 9.413c0-3.478 2.113-5.399 5.247-5.399 3.124 0 5.247 1.921 5.247 5.399 0 3.468-2.123 5.389-5.247 5.389-3.134 0-5.247-1.921-5.247-5.389zm1.8 0c0 2.548 1.385 3.933 3.448 3.933 2.052 0 3.438-1.385 3.438-3.933 0-2.558-1.385-3.933-3.437-3.933-2.062 0-3.448 1.375-3.448 3.933zM65.23 7.522h1.719v1.233h.162c.354-.728 1.001-1.274 2.548-1.274h1.436v1.537H69.7c-1.931 0-2.689 1.062-2.689 3.154v5.652H65.23V7.522zm7.233 14.347V7.522h1.739v1.426h.162c.768-1.193 2.022-1.658 3.478-1.658 2.679 0 4.732 1.82 4.732 5.389 0 3.559-2.052 5.379-4.732 5.379-1.425 0-2.669-.455-3.437-1.597h-.162v5.409h-1.779zm1.719-9.19c0 2.497 1.334 3.903 3.296 3.903 1.971 0 3.306-1.405 3.306-3.902 0-2.507-1.335-3.913-3.306-3.913-1.961 0-3.296 1.405-3.296 3.913zm10.095-9.413h1.779v5.53h.162c.738-1.092 1.961-1.506 3.407-1.506 2.396 0 3.913 1.213 3.913 3.731v6.804h-1.779v-6.632c0-1.678-.92-2.416-2.528-2.416-1.759 0-3.175 1.041-3.175 3.296v5.753h-1.779V3.266zm10.861 9.413c0-3.478 2.113-5.399 5.247-5.399 3.124 0 5.247 1.921 5.247 5.399 0 3.468-2.123 5.389-5.247 5.389-3.134 0-5.247-1.921-5.247-5.389zm1.8 0c0 2.548 1.385 3.933 3.447 3.933 2.053 0 3.438-1.385 3.438-3.933 0-2.558-1.385-3.933-3.438-3.933-2.062 0-3.447 1.375-3.447 3.933z" fill="currentColor"/><path d="M113.546 3.672h1.831v12.726h7.96V18h-9.791V3.672zm11.773 4.189h1.751V18h-1.751V7.861zm-.13-1.731v-1.92h2.03v1.92h-2.03zm3.68 1.731h2.398V5.075h1.751v2.786h3.035v1.423h-3.035v7.045l.159.159h2.846V18h-2.149c-1.662 0-2.607-.826-2.607-2.478V9.284h-2.398V7.861zm8.513 5.065c0-3.443 1.911-5.303 4.916-5.303 3.015 0 4.676 1.881 4.676 4.866v.876h-7.9c.04 2.109 1.254 3.463 3.224 3.463 1.87 0 2.736-1.065 2.895-2h1.572v.298c-.229 1.244-1.403 3.114-4.447 3.114-3.005 0-4.936-1.861-4.936-5.313zm1.722-.945h6.199c-.02-1.731-1.045-2.955-3.015-2.955-1.931 0-3.045 1.244-3.184 2.955z" fill-opacity=".5" fill="currentColor"/></svg>